<svg width="120" height="120" viewBox="0 0 120 120" fill="none" xmlns="http://www.w3.org/2000/svg">
<mask id="mask0_13_1561" style="mask-type:luminance" maskUnits="userSpaceOnUse" x="0" y="0" width="121" height="121">
<path d="M0 0H120V120H0V0Z" fill="white"/>
</mask>
<g mask="url(#mask0_13_1561)">
<mask id="mask1_13_1561" style="mask-type:luminance" maskUnits="userSpaceOnUse" x="0" y="0" width="121" height="121">
<path d="M60.0001 0C26.8654 0 0 26.8654 0 60.0001C0 93.1348 26.8654 120 60.0001 120C93.1389 120 120 93.1348 120 60.0001C120 26.8654 93.1389 0 60.0001 0Z" fill="white"/>
</mask>
<g mask="url(#mask1_13_1561)">
<mask id="mask2_13_1561" style="mask-type:luminance" maskUnits="userSpaceOnUse" x="-1" y="-1" width="122" height="122">
<path d="M120.675 -0.671112H-0.847168V120.851H120.675V-0.671112Z" fill="white"/>
</mask>
<g mask="url(#mask2_13_1561)">
<mask id="mask3_13_1561" style="mask-type:luminance" maskUnits="userSpaceOnUse" x="0" y="0" width="121" height="121">
<path d="M0 0H120V120H0V0Z" fill="white"/>
</mask>
<g mask="url(#mask3_13_1561)">
<mask id="mask4_13_1561" style="mask-type:luminance" maskUnits="userSpaceOnUse" x="0" y="0" width="121" height="121">
<path d="M60.0001 0C26.8654 0 0 26.8654 0 60.0001C0 93.1348 26.8654 120 60.0001 120C93.1389 120 120 93.1348 120 60.0001C120 26.8654 93.1389 0 60.0001 0Z" fill="white"/>
</mask>
<g mask="url(#mask4_13_1561)">
<path d="M0 0H120V120H0V0Z" fill="#FFC9FB"/>
</g>
</g>
</g>
</g>
</g>
<mask id="mask5_13_1561" style="mask-type:luminance" maskUnits="userSpaceOnUse" x="13" y="21" width="95" height="79">
<path d="M13.8196 21.3287H107.057V99.9688H13.8196V21.3287Z" fill="white"/>
</mask>
<g mask="url(#mask5_13_1561)">
<path d="M103.541 37.5216C100.337 29.7177 94.4402 24.492 86.9351 22.8101C75.3664 20.2197 67.9227 24.5984 63.7118 28.7274C62.2386 30.1801 61.0559 31.6943 60.1352 33.0815C59.2349 31.6779 58.085 30.1392 56.6323 28.6619C52.5032 24.4551 45.1413 19.9373 33.5235 22.3149C25.9897 23.8536 19.9987 28.9688 16.6472 36.7154C12.2317 46.9296 13.2589 59.8323 19.2744 69.58C25.7565 80.097 36.0975 87.774 43.6272 92.3696C51.7298 97.3089 58.265 99.7847 58.5392 99.887C58.8625 100.006 59.1981 100.067 59.5377 100.067C59.8569 100.067 60.1761 100.014 60.483 99.9033C60.7613 99.8092 67.3416 97.4521 75.5301 92.6642C83.1457 88.2119 93.6259 80.7272 100.308 70.333C106.5 60.6999 107.769 47.8176 103.541 37.5216Z" fill="white"/>
</g>
<path d="M64.0021 57.4875C65.7168 59.6441 68.2008 59.8282 70.1773 57.9213C70.5947 57.5202 70.9794 57.0619 71.2904 56.5749C73.1073 53.739 73.7089 50.6289 73.2915 47.3102C73.0541 45.395 72.4526 43.6108 71.1512 42.1294C69.7149 40.4966 67.5746 40.2838 65.8559 41.6138C65.4262 41.9453 65.017 42.3258 64.6814 42.7514C62.7827 45.1577 62.1156 47.9772 61.9888 50.9031C62.0174 51.4106 62.0215 51.8525 62.0665 52.2863C62.2711 54.181 62.7908 55.9652 64.0021 57.4875Z" fill="#454699"/>
<path d="M49.0902 57.3648C49.6509 58.0523 50.3097 58.6252 51.1527 58.9444C52.8305 59.5705 54.5861 59.0344 55.781 57.5244C57.2747 55.6378 57.7985 53.4321 57.8844 50.5185C57.7862 49.8801 57.688 48.6729 57.4138 47.5066C56.9227 45.44 56.0715 43.529 54.5001 42.023C52.5645 40.1693 50.0519 40.333 48.4109 42.4527C47.9935 42.9929 47.6539 43.6149 47.3797 44.2451C46.4999 46.2667 46.2871 48.3987 46.4958 50.5717C46.7372 53.0679 47.4861 55.3882 49.0902 57.3648Z" fill="#454699"/>
<path d="M44.6011 68.9907C45.6119 67.5789 45.9065 65.9624 45.9434 64.3133C45.8779 61.5224 45.1126 58.9852 43.6272 56.669C42.9601 55.6296 42.1376 54.7252 41.0982 54.0377C39.0684 52.6996 36.7973 53.1497 35.4836 55.1958C35.1317 55.7401 34.8412 56.3539 34.6611 56.9759C33.679 60.4052 34.3296 63.6258 36.0811 66.6581C36.8914 68.0617 37.894 69.3221 39.3344 70.1447C41.2537 71.2455 43.3162 70.7872 44.6011 68.9907Z" fill="#454699"/>
<path d="M69.8048 68.8802C68.6549 67.1656 67.4641 65.4755 65.8681 64.1251C64.1903 62.7051 62.3079 61.7925 60.4091 61.7925C57.9292 61.8007 56.0632 62.5291 54.3936 63.8182C52.8058 65.0376 51.66 66.6418 50.5141 68.2541C49.1719 70.1406 47.7846 72.0026 46.3728 73.8359C45.7835 74.6011 45.0756 75.2723 44.4249 75.9925C43.4019 77.1301 42.9926 78.4519 43.3896 79.9456C44.2408 83.1539 47.2281 84.7867 50.3668 83.7554C52.1142 83.1784 53.8493 82.5646 55.5762 81.9344C58.6617 80.809 61.7145 80.8663 64.7673 82.0572C66.2446 82.6342 67.7505 83.1293 69.236 83.6736C70.1077 83.9887 70.9957 84.181 71.9205 84.0664C74.159 83.7841 75.579 82.4377 76.4138 80.4407C77.1749 78.6197 76.6307 77.0688 75.2966 75.702C73.2464 73.6067 71.4376 71.3151 69.8048 68.8802Z" fill="#454699"/>
<path d="M85.7113 58.9238C85.6213 57.4465 85.1916 56.0511 84.2749 54.848C83.0923 53.2929 81.3858 52.8428 79.5975 53.6203C78.3739 54.1564 77.4655 55.0772 76.7084 56.1534C75.0388 58.531 74.1917 61.1909 74.0444 64.3256C74.0362 65.8888 74.2981 67.6157 75.4235 69.1053C76.2705 70.2306 77.3591 70.8445 78.8159 70.7012C79.8962 70.5907 80.8252 70.1283 81.5904 69.404C84.5982 66.5599 85.965 63.0447 85.7113 58.9238Z" fill="#454699"/>
</svg>
