<svg width="886" height="1919" viewBox="0 0 886 1919" fill="none" xmlns="http://www.w3.org/2000/svg">
<g clip-path="url(#clip0_219_2191)">
<rect width="886" height="1918.49" fill="#FFF4FE"/>
<path d="M181.148 1794.7C180.42 1794.47 179.788 1794 179.348 1793.37C144.53 1742.89 147.101 1694.19 161.18 1665.31C170.557 1646.14 185.196 1634.21 200.391 1633.41C206.85 1632.95 213.33 1633.7 219.499 1635.63C242.146 1643.26 244.07 1668.66 241 1687.3C254.468 1676.57 281.395 1658.56 302.796 1665.76C307.095 1667.36 311.03 1669.81 314.371 1672.96C317.712 1676.11 320.392 1679.91 322.254 1684.14C327.453 1694.56 325.757 1709.54 317.552 1725.38C303.121 1753.18 266.374 1786 206.59 1794.6C198.434 1795.24 190.248 1795.28 182.096 1794.73L181.148 1794.7ZM217.111 1642.72C211.787 1641.09 206.203 1640.48 200.642 1640.91C188.304 1641.6 175.641 1652.21 167.648 1668.56C154.573 1695.3 152.213 1740.53 184.239 1787.8C191.416 1788.2 198.615 1788.13 205.79 1787.6C262.643 1779.32 297.526 1748.34 311.143 1722.11C318.111 1708.66 320.007 1695.78 315.785 1687.58C314.344 1684.19 312.246 1681.13 309.613 1678.58C306.98 1676.03 303.865 1674.04 300.452 1672.73C275.355 1664.28 237.787 1699.54 237.411 1699.95C236.825 1700.5 236.074 1700.85 235.276 1700.93C234.479 1701.01 233.679 1700.82 233.001 1700.4C232.332 1699.96 231.823 1699.32 231.551 1698.56C231.279 1697.81 231.259 1696.98 231.493 1696.21C231.669 1695.69 244.958 1652.1 217.111 1642.72Z" fill="#FFC9FB"/>
<path d="M49.9298 1843.9C49.6283 1843.85 49.3365 1843.75 49.0654 1843.61C43.7631 1840.13 38.7048 1836.3 33.9258 1832.13C0.427206 1798.44 -7.04019 1760.74 -3.03529 1736.99C-0.754875 1723.36 5.41035 1713.05 13.738 1709.04C16.9663 1707.23 20.529 1706.08 24.2133 1705.67C27.8976 1705.26 31.6279 1705.6 35.181 1706.66C51.0845 1712.02 59.5124 1733.29 63.3308 1746.67C70.3571 1731.8 85.5798 1707.32 107.188 1714.59C111.232 1716.03 114.969 1718.22 118.202 1721.04C127.324 1728.67 130.546 1744.39 126.884 1763.12C122.642 1781.91 113.514 1799.23 100.42 1813.36C87.3249 1827.49 70.7262 1837.92 52.2949 1843.6C51.5627 1843.96 50.7309 1844.06 49.9298 1843.9ZM32.8439 1713.6C30.2127 1712.82 27.4509 1712.58 24.7247 1712.89C21.9986 1713.2 19.3645 1714.06 16.9814 1715.41C10.9057 1718.17 6.05615 1726.85 4.15614 1738.07C0.356773 1760.21 7.5421 1795.17 38.9699 1826.58C43.021 1830.06 47.2583 1833.31 51.6629 1836.33C68.5477 1830.85 83.7074 1821.08 95.6527 1807.98C107.598 1794.88 115.918 1778.89 119.795 1761.6C122.917 1745.76 120.526 1732.28 113.619 1726.5C111.065 1724.26 108.11 1722.51 104.909 1721.36C81.8747 1713.6 65.9695 1758.98 65.8098 1759.45C65.5565 1760.22 65.053 1760.87 64.3803 1761.32C63.7076 1761.76 62.9046 1761.97 62.1 1761.9C61.2955 1761.84 60.5361 1761.5 59.9437 1760.95C59.3514 1760.41 58.9604 1759.67 58.8334 1758.88C58.7186 1758.65 51.9455 1720.04 32.8439 1713.6Z" fill="#FFC9FB"/>
<path d="M118.66 1958.29C117.97 1958.07 117.363 1957.65 116.919 1957.07C113.704 1952.71 110.771 1948.15 108.139 1943.4C91.0321 1906.49 95.8461 1873.74 106.02 1855.31C111.894 1844.68 119.829 1838 127.802 1837.04C131.755 1836.5 135.767 1836.84 139.561 1838.03C156.303 1843.67 157.786 1866.66 156.991 1880.8C165.877 1872.01 181.047 1860.03 194.698 1864.63C200.371 1866.81 205.05 1871.02 207.871 1876.46C213.005 1885.35 211.092 1899.26 202.661 1913.65C193.892 1927.89 181.589 1939.56 167.003 1947.48C152.416 1955.39 136.067 1959.27 119.618 1958.71L118.66 1958.29ZM137.22 1844.98C134.424 1844.11 131.466 1843.88 128.558 1844.3C123.027 1844.97 116.939 1850.42 112.29 1858.83C102.991 1875.66 98.7153 1905.81 114.582 1940.02C116.713 1943.9 119.077 1947.64 121.662 1951.22C136.494 1951.46 151.179 1947.8 164.285 1940.6C177.391 1933.39 188.472 1922.88 196.448 1910.1C203.293 1898.43 205.301 1886.79 201.652 1880.45C199.702 1876.52 196.412 1873.44 192.384 1871.78C179.505 1867.45 161.077 1886.26 155.129 1893.85C154.625 1894.49 153.929 1894.94 153.151 1895.14C152.372 1895.33 151.554 1895.26 150.823 1894.94C150.093 1894.62 149.491 1894.06 149.111 1893.35C148.731 1892.63 148.595 1891.81 148.724 1891.01C150.642 1879.78 152.373 1850.08 137.22 1844.98Z" fill="#FFC9FB"/>
<path d="M65.8175 178.227C65.5263 178.133 65.2737 177.946 65.0978 177.694C51.175 157.507 52.2028 138.035 57.8329 126.486C61.5822 118.818 67.436 114.048 73.5122 113.73C76.0952 113.546 78.686 113.847 81.1532 114.618C90.2092 117.667 90.9784 127.826 89.7509 135.278C95.1364 130.989 105.904 123.786 114.461 126.667C116.181 127.305 117.754 128.283 119.09 129.544C120.426 130.806 121.498 132.325 122.242 134.014C124.321 138.182 123.643 144.172 120.362 150.507C114.592 161.621 99.8972 174.747 75.991 178.185C72.7299 178.44 69.4565 178.458 66.1963 178.238L65.8175 178.227ZM80.1982 117.454C78.0694 116.802 75.8363 116.556 73.6124 116.728C68.679 117.004 63.6152 121.246 60.419 127.783C55.1909 138.479 54.2471 156.566 67.0534 175.466C69.9234 175.625 72.8019 175.598 75.6713 175.384C98.4054 172.075 112.354 159.686 117.799 149.198C120.586 143.821 121.344 138.671 119.655 135.39C119.079 134.035 118.24 132.812 117.187 131.792C116.134 130.772 114.889 129.976 113.524 129.451C103.489 126.072 88.4661 140.173 88.3157 140.335C88.0812 140.557 87.7811 140.696 87.4621 140.728C87.1431 140.761 86.8231 140.686 86.552 140.516C86.2846 140.342 86.0812 140.085 85.9724 139.782C85.8636 139.48 85.8554 139.15 85.9491 138.841C86.0194 138.632 91.3334 121.204 80.1982 117.454Z" fill="#FFC9FB"/>
<path d="M13.3464 197.9C13.2258 197.88 13.1092 197.841 13.0007 197.784C10.8805 196.393 8.85779 194.859 6.94676 193.193C-6.44849 179.719 -9.43452 164.646 -7.83306 155.148C-6.92117 149.698 -4.45585 145.576 -1.12584 143.972C0.165085 143.247 1.58974 142.788 3.063 142.625C4.53626 142.462 6.02789 142.596 7.44868 143.021C13.8081 145.163 17.1782 153.667 18.7051 159.018C21.5148 153.074 27.6019 143.283 36.2425 146.192C37.8597 146.767 39.354 147.641 40.6466 148.769C44.2945 151.821 45.5829 158.108 44.1186 165.599C42.4223 173.109 38.7722 180.038 33.536 185.687C28.2998 191.336 21.6623 195.506 14.2921 197.777C13.9993 197.922 13.6667 197.965 13.3464 197.9ZM6.51415 145.797C5.46201 145.484 4.35761 145.386 3.2675 145.511C2.17738 145.635 1.12408 145.979 0.171124 146.52C-2.25841 147.621 -4.19761 151.094 -4.95738 155.579C-6.47665 164.433 -3.60342 178.413 8.9638 190.974C10.5837 192.364 12.2781 193.665 14.0394 194.871C20.7912 192.681 26.8532 188.774 31.6298 183.535C36.4064 178.296 39.7333 171.905 41.2837 164.99C42.532 158.655 41.5759 153.266 38.8141 150.954C37.7929 150.056 36.6113 149.359 35.3312 148.898C26.1203 145.797 19.7603 163.941 19.6964 164.131C19.5951 164.436 19.3938 164.699 19.1248 164.877C18.8558 165.054 18.5347 165.136 18.2129 165.11C17.8912 165.083 17.5876 164.95 17.3507 164.731C17.1138 164.512 16.9575 164.219 16.9067 163.901C16.8608 163.809 14.1524 148.369 6.51415 145.797Z" fill="#FFC9FB"/>
<path d="M40.8299 243.641C40.5539 243.554 40.3112 243.384 40.1339 243.153C38.8484 241.411 37.6755 239.586 36.6228 237.688C29.7822 222.926 31.7073 209.831 35.7755 202.461C38.1244 198.21 41.2975 195.541 44.4856 195.155C46.0665 194.941 47.6706 195.076 49.1877 195.551C55.8824 197.805 56.4754 206.998 56.1575 212.653C59.7108 209.139 65.777 204.349 71.2357 206.187C73.5041 207.062 75.375 208.743 76.5034 210.92C78.5561 214.473 77.7914 220.036 74.4197 225.791C70.9136 231.485 65.9939 236.152 60.1611 239.317C54.3283 242.482 47.7906 244.031 41.213 243.808L40.8299 243.641ZM48.2516 198.331C47.1337 197.982 45.9509 197.889 44.7879 198.06C42.5764 198.327 40.1419 200.505 38.2827 203.87C34.5642 210.599 32.8546 222.657 39.1993 236.337C40.0513 237.887 40.9968 239.382 42.0304 240.813C47.9615 240.911 53.8335 239.448 59.0743 236.566C64.3151 233.685 68.7461 229.483 71.9357 224.371C74.6725 219.706 75.4754 215.051 74.0165 212.516C73.2368 210.941 71.9212 209.71 70.3104 209.049C65.1606 207.315 57.7915 214.839 55.4129 217.873C55.2114 218.127 54.9333 218.308 54.622 218.387C54.3106 218.466 53.9834 218.439 53.6913 218.309C53.3991 218.18 53.1584 217.955 53.0066 217.671C52.8547 217.387 52.8003 217.059 52.8517 216.738C53.6188 212.246 54.3111 200.371 48.2516 198.331Z" fill="#FFC9FB"/>
<path d="M761.981 366.067C761.746 366.299 761.438 366.441 761.11 366.469C760.782 366.497 760.456 366.409 760.189 366.22C759.922 366.031 759.73 365.753 759.648 365.435C759.565 365.118 759.598 364.78 759.739 364.483C759.897 364.161 768.165 347.633 769.677 322.492C754.569 327.659 738.716 330.238 722.79 330.119C690.716 329.977 668.34 313.15 660.423 296.498C655.098 285.343 655.887 274.061 662.599 265.55C664.634 262.827 667.205 260.55 670.153 258.86C673.101 257.171 676.36 256.106 679.728 255.732C688.617 254.762 697.539 258.348 703.87 261.857C698.402 254.172 697.351 247.703 697.662 243.175C697.883 240.028 698.785 236.96 700.304 234.185C701.823 231.41 703.923 228.993 706.46 227.101C716.27 219.896 729.031 215.969 750.165 241.312C769.018 270.377 773.221 298.041 772.776 318.428C799.078 308.457 813.462 293.668 813.673 293.446C813.798 293.311 813.948 293.202 814.115 293.125C814.281 293.049 814.461 293.006 814.644 293C814.827 292.993 815.009 293.023 815.18 293.087C815.351 293.152 815.506 293.25 815.639 293.375C815.906 293.63 816.061 293.982 816.069 294.353C816.077 294.724 815.937 295.084 815.68 295.355C815.457 295.59 800.316 311.176 772.674 321.415C772.534 323.767 772.402 325.954 772.193 328.068C769.881 350.731 762.57 365.111 762.252 365.704C762.19 365.844 762.097 365.968 761.981 366.067ZM666.464 265.297C665.881 265.911 665.223 266.603 664.767 267.264C658.736 274.929 658.063 285.13 662.899 295.322C670.468 311.171 691.927 327.225 722.771 327.391C738.749 327.493 754.646 324.817 769.752 319.481C770.493 298.108 766.002 271.163 747.827 242.967C725.649 216.309 714.227 224.716 708.092 229.249C705.867 230.898 704.021 233.006 702.684 235.43C701.346 237.853 700.547 240.534 700.342 243.287C699.809 251.084 704.126 259.565 712.804 267.816C713.064 268.063 713.217 268.403 713.229 268.763C713.241 269.123 713.112 269.475 712.87 269.744C712.756 269.885 712.614 270.002 712.454 270.087C712.294 270.172 712.118 270.223 711.938 270.238C711.757 270.253 711.576 270.23 711.405 270.173C711.235 270.115 711.078 270.023 710.944 269.902C710.802 269.766 694.904 256.787 679.912 258.444C674.741 259.029 669.946 261.48 666.427 265.337L666.464 265.297Z" fill="#FFC9FB"/>
<path d="M898.608 1214.39C898.386 1214.55 898.133 1214.65 897.867 1214.7C844.888 1224.54 807.017 1204.93 789.308 1183.34C777.672 1169.19 773.632 1153.51 778.471 1141.38C780.942 1134.34 785.347 1128.14 791.181 1123.49C807.692 1111.44 828.761 1124.09 838.022 1130.93C834.192 1116.94 826.819 1081.38 845.984 1067.4C851.16 1063.84 857.279 1061.92 863.557 1061.86C873.444 1061.46 884.475 1068.13 893.837 1080.16C910.625 1101.69 923.196 1142.94 908.041 1194.09C905.522 1200.83 902.541 1207.39 899.118 1213.73C898.999 1213.98 898.825 1214.21 898.608 1214.39ZM793.339 1126.45C788.052 1130.7 784.067 1136.35 781.842 1142.76C777.487 1153.63 781.318 1167.94 792.084 1181.05C809.072 1201.74 845.339 1220.47 896.287 1211.29C899.448 1205.38 902.207 1199.26 904.545 1192.98C919.269 1143.29 907.192 1103.32 890.957 1082.47C882.435 1071.54 872.245 1065.23 863.701 1065.59C858.146 1065.61 852.724 1067.3 848.132 1070.42C826.696 1086.06 842.988 1134.97 843.146 1135.47C843.284 1135.85 843.289 1136.27 843.158 1136.65C843.027 1137.03 842.77 1137.36 842.428 1137.58C842.094 1137.8 841.692 1137.91 841.288 1137.88C840.885 1137.85 840.503 1137.69 840.205 1137.41C839.958 1137.15 812.274 1112.63 793.339 1126.45Z" fill="#FFC9FB"/>
</g>
<defs>
<clipPath id="clip0_219_2191">
<rect width="886" height="1918.49" fill="white"/>
</clipPath>
</defs>
</svg>
